<svg width="720" height="120" xmlns="http://www.w3.org/2000/svg" style="background-color:#0d1117;"><style>.day-square:hover { stroke: #58a6ff; stroke-width: 1px; }</style><text x="10" y="20" fill="#c9d1d9" font-family="monospace" font-size="14">Pwn.college Activity</text><rect x="10" y="47" width="10" height="10" fill="#161b22" rx="2" ry="2" class="day-square"><title>2024-09-16: 0 solves</title></rect><rect x="10" y="59" width="10" height="10" fill="#161b22" rx="2" ry="2" class="day-square"><title>2024-09-17: 0 solves</title></rect><rect x="10" y="71" width="10" height="10" fill="#161b22" rx="2" ry="2" class="day-square"><title>2024-09-18: 0 solves</title></rect><rect x="10" y="83" width="10" height="10" fill="#161b22" rx="2" ry="2" class="day-square"><title>2024-09-19: 0 solves</title></rect><rect x="10" y="95" width="10" height="10" fill="#161b22" rx="2" ry="2" class="day-square"><title>2024-09-20: 0 solves</title></rect><rect x="10" y="107" width="10" height="10" fill="#161b22" rx="2" ry="2" class="day-square"><title>2024-09-21: 0 solves</title></rect><rect x="22" y="35" width="10" height="10" fill="#161b22" rx="2" ry="2" class="day-square"><title>2024-09-22: 0 solves</title></rect><rect x="22" y="47" width="10" height="10" fill="#161b22" rx="2" ry="2" class="day-square"><title>2024-09-23: 0 solves</title></rect><rect x="22" y="59" width="10" height="10" fill="#161b22" rx="2" ry="2" class="day-square"><title>2024-09-24: 0 solves</title></rect><rect x="22" y="71" width="10" height="10" fill="#161b22" rx="2" ry="2" class="day-square"><title>2024-09-25: 0 solves</title></rect><rect x="22" y="83" width="10" height="10" fill="#161b22" rx="2" ry="2" class="day-square"><title>2024-09-26: 0 solves</title></rect><rect x="22" y="95" width="10" height="10" fill="#161b22" rx="2" ry="2" class="day-square"><title>2024-09-27: 0 solves</title></rect><rect x="22" y="107" width="10" height="10" fill="#161b22" rx="2" ry="2" class="day-square"><title>2024-09-28: 0 solves</title></rect><rect x="34" y="35" width="10" height="10" fill="#161b22" rx="2" ry="2" class="day-square"><title>2024-09-29: 0 solves</title></rect><rect x="34" y="47" width="10" height="10" fill="#161b22" rx="2" ry="2" class="day-square"><title>2024-09-30: 0 solves</title></rect><rect x="34" y="59" width="10" height="10" fill="#161b22" rx="2" ry="2" class="day-square"><title>2024-10-01: 0 solves</title></rect><rect x="34" y="71" width="10" height="10" fill="#161b22" rx="2" ry="2" class="day-square"><title>2024-10-02: 0 solves</title></rect><rect x="34" y="83" width="10" height="10" fill="#161b22" rx="2" ry="2" class="day-square"><title>2024-10-03: 0 solves</title></rect><rect x="34" y="95" width="10" height="10" fill="#161b22" rx="2" ry="2" class="day-square"><title>2024-10-04: 0 solves</title></rect><rect x="34" y="107" width="10" height="10" fill="#161b22" rx="2" ry="2" class="day-square"><title>2024-10-05: 0 solves</title></rect><rect x="46" y="35" width="10" height="10" fill="#161b22" rx="2" ry="2" class="day-square"><title>2024-10-06: 0 solves</title></rect><rect x="46" y="47" width="10" height="10" fill="#161b22" rx="2" ry="2" class="day-square"><title>2024-10-07: 0 solves</title></rect><rect x="46" y="59" width="10" height="10" fill="#161b22" rx="2" ry="2" class="day-square"><title>2024-10-08: 0 solves</title></rect><rect x="46" y="71" width="10" height="10" fill="#161b22" rx="2" ry="2" class="day-square"><title>2024-10-09: 0 solves</title></rect><rect x="46" y="83" width="10" height="10" fill="#161b22" rx="2" ry="2" class="day-square"><title>2024-10-10: 0 solves</title></rect><rect x="46" y="95" width="10" height="10" fill="#161b22" rx="2" ry="2" class="day-square"><title>2024-10-11: 0 solves</title></rect><rect x="46" y="107" width="10" height="10" fill="#161b22" rx="2" ry="2" class="day-square"><title>2024-10-12: 0 solves</title></rect><rect x="58" y="35" width="10" height="10" fill="#161b22" rx="2" ry="2" class="day-square"><title>2024-10-13: 0 solves</title></rect><rect x="58" y="47" width="10" height="10" fill="#161b22" rx="2" ry="2" class="day-square"><title>2024-10-14: 0 solves</title></rect><rect x="58" y="59" width="10" height="10" fill="#161b22" rx="2" ry="2" class="day-square"><title>2024-10-15: 0 solves</title></rect><rect x="58" y="71" width="10" height="10" fill="#161b22" rx="2" ry="2" class="day-square"><title>2024-10-16: 0 solves</title></rect><rect x="58" y="83" width="10" height="10" fill="#161b22" rx="2" ry="2" class="day-square"><title>2024-10-17: 0 solves</title></rect><rect x="58" y="95" width="10" height="10" fill="#161b22" rx="2" ry="2" class="day-square"><title>2024-10-18: 0 solves</title></rect><rect x="58" y="107" width="10" height="10" fill="#161b22" rx="2" ry="2" class="day-square"><title>2024-10-19: 0 solves</title></rect><rect x="70" y="35" width="10" height="10" fill="#161b22" rx="2" ry="2" class="day-square"><title>2024-10-20: 0 solves</title></rect><rect x="70" y="47" width="10" height="10" fill="#161b22" rx="2" ry="2" class="day-square"><title>2024-10-21: 0 solves</title></rect><rect x="70" y="59" width="10" height="10" fill="#161b22" rx="2" ry="2" class="day-square"><title>2024-10-22: 0 solves</title></rect><rect x="70" y="71" width="10" height="10" fill="#161b22" rx="2" ry="2" class="day-square"><title>2024-10-23: 0 solves</title></rect><rect x="70" y="83" width="10" height="10" fill="#161b22" rx="2" ry="2" class="day-square"><title>2024-10-24: 0 solves</title></rect><rect x="70" y="95" width="10" height="10" fill="#161b22" rx="2" ry="2" class="day-square"><title>2024-10-25: 0 solves</title></rect><rect x="70" y="107" width="10" height="10" fill="#161b22" rx="2" ry="2" class="day-square"><title>2024-10-26: 0 solves</title></rect><rect x="82" y="35" width="10" height="10" fill="#161b22" rx="2" ry="2" class="day-square"><title>2024-10-27: 0 solves</title></rect><rect x="82" y="47" width="10" height="10" fill="#161b22" rx="2" ry="2" class="day-square"><title>2024-10-28: 0 solves</title></rect><rect x="82" y="59" width="10" height="10" fill="#161b22" rx="2" ry="2" class="day-square"><title>2024-10-29: 0 solves</title></rect><rect x="82" y="71" width="10" height="10" fill="#161b22" rx="2" ry="2" class="day-square"><title>2024-10-30: 0 solves</title></rect><rect x="82" y="83" width="10" height="10" fill="#161b22" rx="2" ry="2" class="day-square"><title>2024-10-31: 0 solves</title></rect><rect x="82" y="95" width="10" height="10" fill="#161b22" rx="2" ry="2" class="day-square"><title>2024-11-01: 0 solves</title></rect><rect x="82" y="107" width="10" height="10" fill="#161b22" rx="2" ry="2" class="day-square"><title>2024-11-02: 0 solves</title></rect><rect x="94" y="35" width="10" height="10" fill="#161b22" rx="2" ry="2" class="day-square"><title>2024-11-03: 0 solves</title></rect><rect x="94" y="47" width="10" height="10" fill="#161b22" rx="2" ry="2" class="day-square"><title>2024-11-04: 0 solves</title></rect><rect x="94" y="59" width="10" height="10" fill="#161b22" rx="2" ry="2" class="day-square"><title>2024-11-05: 0 solves</title></rect><rect x="94" y="71" width="10" height="10" fill="#161b22" rx="2" ry="2" class="day-square"><title>2024-11-06: 0 solves</title></rect><rect x="94" y="83" width="10" height="10" fill="#161b22" rx="2" ry="2" class="day-square"><title>2024-11-07: 0 solves</title></rect><rect x="94" y="95" width="10" height="10" fill="#161b22" rx="2" ry="2" class="day-square"><title>2024-11-08: 0 solves</title></rect><rect x="94" y="107" width="10" height="10" fill="#161b22" rx="2" ry="2" class="day-square"><title>2024-11-09: 0 solves</title></rect><rect x="106" y="35" width="10" height="10" fill="#161b22" rx="2" ry="2" class="day-square"><title>2024-11-10: 0 solves</title></rect><rect x="106" y="47" width="10" height="10" fill="#161b22" rx="2" ry="2" class="day-square"><title>2024-11-11: 0 solves</title></rect><rect x="106" y="59" width="10" height="10" fill="#161b22" rx="2" ry="2" class="day-square"><title>2024-11-12: 0 solves</title></rect><rect x="106" y="71" width="10" height="10" fill="#161b22" rx="2" ry="2" class="day-square"><title>2024-11-13: 0 solves</title></rect><rect x="106" y="83" width="10" height="10" fill="#161b22" rx="2" ry="2" class="day-square"><title>2024-11-14: 0 solves</title></rect><rect x="106" y="95" width="10" height="10" fill="#161b22" rx="2" ry="2" class="day-square"><title>2024-11-15: 0 solves</title></rect><rect x="106" y="107" width="10" height="10" fill="#161b22" rx="2" ry="2" class="day-square"><title>2024-11-16: 0 solves</title></rect><rect x="118" y="35" width="10" height="10" fill="#161b22" rx="2" ry="2" class="day-square"><title>2024-11-17: 0 solves</title></rect><rect x="118" y="47" width="10" height="10" fill="#161b22" rx="2" ry="2" class="day-square"><title>2024-11-18: 0 solves</title></rect><rect x="118" y="59" width="10" height="10" fill="#161b22" rx="2" ry="2" class="day-square"><title>2024-11-19: 0 solves</title></rect><rect x="118" y="71" width="10" height="10" fill="#161b22" rx="2" ry="2" class="day-square"><title>2024-11-20: 0 solves</title></rect><rect x="118" y="83" width="10" height="10" fill="#161b22" rx="2" ry="2" class="day-square"><title>2024-11-21: 0 solves</title></rect><rect x="118" y="95" width="10" height="10" fill="#161b22" rx="2" ry="2" class="day-square"><title>2024-11-22: 0 solves</title></rect><rect x="118" y="107" width="10" height="10" fill="#161b22" rx="2" ry="2" class="day-square"><title>2024-11-23: 0 solves</title></rect><rect x="130" y="35" width="10" height="10" fill="#161b22" rx="2" ry="2" class="day-square"><title>2024-11-24: 0 solves</title></rect><rect x="130" y="47" width="10" height="10" fill="#161b22" rx="2" ry="2" class="day-square"><title>2024-11-25: 0 solves</title></rect><rect x="130" y="59" width="10" height="10" fill="#161b22" rx="2" ry="2" class="day-square"><title>2024-11-26: 0 solves</title></rect><rect x="130" y="71" width="10" height="10" fill="#161b22" rx="2" ry="2" class="day-square"><title>2024-11-27: 0 solves</title></rect><rect x="130" y="83" width="10" height="10" fill="#161b22" rx="2" ry="2" class="day-square"><title>2024-11-28: 0 solves</title></rect><rect x="130" y="95" width="10" height="10" fill="#161b22" rx="2" ry="2" class="day-square"><title>2024-11-29: 0 solves</title></rect><rect x="130" y="107" width="10" height="10" fill="#161b22" rx="2" ry="2" class="day-square"><title>2024-11-30: 0 solves</title></rect><rect x="142" y="35" width="10" height="10" fill="#161b22" rx="2" ry="2" class="day-square"><title>2024-12-01: 0 solves</title></rect><rect x="142" y="47" width="10" height="10" fill="#161b22" rx="2" ry="2" class="day-square"><title>2024-12-02: 0 solves</title></rect><rect x="142" y="59" width="10" height="10" fill="#161b22" rx="2" ry="2" class="day-square"><title>2024-12-03: 0 solves</title></rect><rect x="142" y="71" width="10" height="10" fill="#161b22" rx="2" ry="2" class="day-square"><title>2024-12-04: 0 solves</title></rect><rect x="142" y="83" width="10" height="10" fill="#161b22" rx="2" ry="2" class="day-square"><title>2024-12-05: 0 solves</title></rect><rect x="142" y="95" width="10" height="10" fill="#161b22" rx="2" ry="2" class="day-square"><title>2024-12-06: 0 solves</title></rect><rect x="142" y="107" width="10" height="10" fill="#161b22" rx="2" ry="2" class="day-square"><title>2024-12-07: 0 solves</title></rect><rect x="154" y="35" width="10" height="10" fill="#161b22" rx="2" ry="2" class="day-square"><title>2024-12-08: 0 solves</title></rect><rect x="154" y="47" width="10" height="10" fill="#161b22" rx="2" ry="2" class="day-square"><title>2024-12-09: 0 solves</title></rect><rect x="154" y="59" width="10" height="10" fill="#161b22" rx="2" ry="2" class="day-square"><title>2024-12-10: 0 solves</title></rect><rect x="154" y="71" width="10" height="10" fill="#161b22" rx="2" ry="2" class="day-square"><title>2024-12-11: 0 solves</title></rect><rect x="154" y="83" width="10" height="10" fill="#161b22" rx="2" ry="2" class="day-square"><title>2024-12-12: 0 solves</title></rect><rect x="154" y="95" width="10" height="10" fill="#161b22" rx="2" ry="2" class="day-square"><title>2024-12-13: 0 solves</title></rect><rect x="154" y="107" width="10" height="10" fill="#161b22" rx="2" ry="2" class="day-square"><title>2024-12-14: 0 solves</title></rect><rect x="166" y="35" width="10" height="10" fill="#161b22" rx="2" ry="2" class="day-square"><title>2024-12-15: 0 solves</title></rect><rect x="166" y="47" width="10" height="10" fill="#161b22" rx="2" ry="2" class="day-square"><title>2024-12-16: 0 solves</title></rect><rect x="166" y="59" width="10" height="10" fill="#161b22" rx="2" ry="2" class="day-square"><title>2024-12-17: 0 solves</title></rect><rect x="166" y="71" width="10" height="10" fill="#161b22" rx="2" ry="2" class="day-square"><title>2024-12-18: 0 solves</title></rect><rect x="166" y="83" width="10" height="10" fill="#161b22" rx="2" ry="2" class="day-square"><title>2024-12-19: 0 solves</title></rect><rect x="166" y="95" width="10" height="10" fill="#161b22" rx="2" ry="2" class="day-square"><title>2024-12-20: 0 solves</title></rect><rect x="166" y="107" width="10" height="10" fill="#161b22" rx="2" ry="2" class="day-square"><title>2024-12-21: 0 solves</title></rect><rect x="178" y="35" width="10" height="10" fill="#161b22" rx="2" ry="2" class="day-square"><title>2024-12-22: 0 solves</title></rect><rect x="178" y="47" width="10" height="10" fill="#161b22" rx="2" ry="2" class="day-square"><title>2024-12-23: 0 solves</title></rect><rect x="178" y="59" width="10" height="10" fill="#161b22" rx="2" ry="2" class="day-square"><title>2024-12-24: 0 solves</title></rect><rect x="178" y="71" width="10" height="10" fill="#161b22" rx="2" ry="2" class="day-square"><title>2024-12-25: 0 solves</title></rect><rect x="178" y="83" width="10" height="10" fill="#161b22" rx="2" ry="2" class="day-square"><title>2024-12-26: 0 solves</title></rect><rect x="178" y="95" width="10" height="10" fill="#161b22" rx="2" ry="2" class="day-square"><title>2024-12-27: 0 solves</title></rect><rect x="178" y="107" width="10" height="10" fill="#161b22" rx="2" ry="2" class="day-square"><title>2024-12-28: 0 solves</title></rect><rect x="190" y="35" width="10" height="10" fill="#161b22" rx="2" ry="2" class="day-square"><title>2024-12-29: 0 solves</title></rect><rect x="190" y="47" width="10" height="10" fill="#161b22" rx="2" ry="2" class="day-square"><title>2024-12-30: 0 solves</title></rect><rect x="190" y="59" width="10" height="10" fill="#161b22" rx="2" ry="2" class="day-square"><title>2024-12-31: 0 solves</title></rect><rect x="190" y="71" width="10" height="10" fill="#161b22" rx="2" ry="2" class="day-square"><title>2025-01-01: 0 solves</title></rect><rect x="190" y="83" width="10" height="10" fill="#161b22" rx="2" ry="2" class="day-square"><title>2025-01-02: 0 solves</title></rect><rect x="190" y="95" width="10" height="10" fill="#161b22" rx="2" ry="2" class="day-square"><title>2025-01-03: 0 solves</title></rect><rect x="190" y="107" width="10" height="10" fill="#161b22" rx="2" ry="2" class="day-square"><title>2025-01-04: 0 solves</title></rect><rect x="202" y="35" width="10" height="10" fill="#161b22" rx="2" ry="2" class="day-square"><title>2025-01-05: 0 solves</title></rect><rect x="202" y="47" width="10" height="10" fill="#161b22" rx="2" ry="2" class="day-square"><title>2025-01-06: 0 solves</title></rect><rect x="202" y="59" width="10" height="10" fill="#161b22" rx="2" ry="2" class="day-square"><title>2025-01-07: 0 solves</title></rect><rect x="202" y="71" width="10" height="10" fill="#161b22" rx="2" ry="2" class="day-square"><title>2025-01-08: 0 solves</title></rect><rect x="202" y="83" width="10" height="10" fill="#161b22" rx="2" ry="2" class="day-square"><title>2025-01-09: 0 solves</title></rect><rect x="202" y="95" width="10" height="10" fill="#161b22" rx="2" ry="2" class="day-square"><title>2025-01-10: 0 solves</title></rect><rect x="202" y="107" width="10" height="10" fill="#161b22" rx="2" ry="2" class="day-square"><title>2025-01-11: 0 solves</title></rect><rect x="214" y="35" width="10" height="10" fill="#161b22" rx="2" ry="2" class="day-square"><title>2025-01-12: 0 solves</title></rect><rect x="214" y="47" width="10" height="10" fill="#161b22" rx="2" ry="2" class="day-square"><title>2025-01-13: 0 solves</title></rect><rect x="214" y="59" width="10" height="10" fill="#161b22" rx="2" ry="2" class="day-square"><title>2025-01-14: 0 solves</title></rect><rect x="214" y="71" width="10" height="10" fill="#161b22" rx="2" ry="2" class="day-square"><title>2025-01-15: 0 solves</title></rect><rect x="214" y="83" width="10" height="10" fill="#161b22" rx="2" ry="2" class="day-square"><title>2025-01-16: 0 solves</title></rect><rect x="214" y="95" width="10" height="10" fill="#161b22" rx="2" ry="2" class="day-square"><title>2025-01-17: 0 solves</title></rect><rect x="214" y="107" width="10" height="10" fill="#161b22" rx="2" ry="2" class="day-square"><title>2025-01-18: 0 solves</title></rect><rect x="226" y="35" width="10" height="10" fill="#161b22" rx="2" ry="2" class="day-square"><title>2025-01-19: 0 solves</title></rect><rect x="226" y="47" width="10" height="10" fill="#161b22" rx="2" ry="2" class="day-square"><title>2025-01-20: 0 solves</title></rect><rect x="226" y="59" width="10" height="10" fill="#161b22" rx="2" ry="2" class="day-square"><title>2025-01-21: 0 solves</title></rect><rect x="226" y="71" width="10" height="10" fill="#161b22" rx="2" ry="2" class="day-square"><title>2025-01-22: 0 solves</title></rect><rect x="226" y="83" width="10" height="10" fill="#161b22" rx="2" ry="2" class="day-square"><title>2025-01-23: 0 solves</title></rect><rect x="226" y="95" width="10" height="10" fill="#161b22" rx="2" ry="2" class="day-square"><title>2025-01-24: 0 solves</title></rect><rect x="226" y="107" width="10" height="10" fill="#161b22" rx="2" ry="2" class="day-square"><title>2025-01-25: 0 solves</title></rect><rect x="238" y="35" width="10" height="10" fill="#161b22" rx="2" ry="2" class="day-square"><title>2025-01-26: 0 solves</title></rect><rect x="238" y="47" width="10" height="10" fill="#161b22" rx="2" ry="2" class="day-square"><title>2025-01-27: 0 solves</title></rect><rect x="238" y="59" width="10" height="10" fill="#161b22" rx="2" ry="2" class="day-square"><title>2025-01-28: 0 solves</title></rect><rect x="238" y="71" width="10" height="10" fill="#161b22" rx="2" ry="2" class="day-square"><title>2025-01-29: 0 solves</title></rect><rect x="238" y="83" width="10" height="10" fill="#161b22" rx="2" ry="2" class="day-square"><title>2025-01-30: 0 solves</title></rect><rect x="238" y="95" width="10" height="10" fill="#161b22" rx="2" ry="2" class="day-square"><title>2025-01-31: 0 solves</title></rect><rect x="238" y="107" width="10" height="10" fill="#161b22" rx="2" ry="2" class="day-square"><title>2025-02-01: 0 solves</title></rect><rect x="250" y="35" width="10" height="10" fill="#161b22" rx="2" ry="2" class="day-square"><title>2025-02-02: 0 solves</title></rect><rect x="250" y="47" width="10" height="10" fill="#161b22" rx="2" ry="2" class="day-square"><title>2025-02-03: 0 solves</title></rect><rect x="250" y="59" width="10" height="10" fill="#161b22" rx="2" ry="2" class="day-square"><title>2025-02-04: 0 solves</title></rect><rect x="250" y="71" width="10" height="10" fill="#161b22" rx="2" ry="2" class="day-square"><title>2025-02-05: 0 solves</title></rect><rect x="250" y="83" width="10" height="10" fill="#161b22" rx="2" ry="2" class="day-square"><title>2025-02-06: 0 solves</title></rect><rect x="250" y="95" width="10" height="10" fill="#161b22" rx="2" ry="2" class="day-square"><title>2025-02-07: 0 solves</title></rect><rect x="250" y="107" width="10" height="10" fill="#161b22" rx="2" ry="2" class="day-square"><title>2025-02-08: 0 solves</title></rect><rect x="262" y="35" width="10" height="10" fill="#161b22" rx="2" ry="2" class="day-square"><title>2025-02-09: 0 solves</title></rect><rect x="262" y="47" width="10" height="10" fill="#161b22" rx="2" ry="2" class="day-square"><title>2025-02-10: 0 solves</title></rect><rect x="262" y="59" width="10" height="10" fill="#161b22" rx="2" ry="2" class="day-square"><title>2025-02-11: 0 solves</title></rect><rect x="262" y="71" width="10" height="10" fill="#161b22" rx="2" ry="2" class="day-square"><title>2025-02-12: 0 solves</title></rect><rect x="262" y="83" width="10" height="10" fill="#161b22" rx="2" ry="2" class="day-square"><title>2025-02-13: 0 solves</title></rect><rect x="262" y="95" width="10" height="10" fill="#161b22" rx="2" ry="2" class="day-square"><title>2025-02-14: 0 solves</title></rect><rect x="262" y="107" width="10" height="10" fill="#161b22" rx="2" ry="2" class="day-square"><title>2025-02-15: 0 solves</title></rect><rect x="274" y="35" width="10" height="10" fill="#161b22" rx="2" ry="2" class="day-square"><title>2025-02-16: 0 solves</title></rect><rect x="274" y="47" width="10" height="10" fill="#161b22" rx="2" ry="2" class="day-square"><title>2025-02-17: 0 solves</title></rect><rect x="274" y="59" width="10" height="10" fill="#161b22" rx="2" ry="2" class="day-square"><title>2025-02-18: 0 solves</title></rect><rect x="274" y="71" width="10" height="10" fill="#161b22" rx="2" ry="2" class="day-square"><title>2025-02-19: 0 solves</title></rect><rect x="274" y="83" width="10" height="10" fill="#161b22" rx="2" ry="2" class="day-square"><title>2025-02-20: 0 solves</title></rect><rect x="274" y="95" width="10" height="10" fill="#161b22" rx="2" ry="2" class="day-square"><title>2025-02-21: 0 solves</title></rect><rect x="274" y="107" width="10" height="10" fill="#161b22" rx="2" ry="2" class="day-square"><title>2025-02-22: 0 solves</title></rect><rect x="286" y="35" width="10" height="10" fill="#161b22" rx="2" ry="2" class="day-square"><title>2025-02-23: 0 solves</title></rect><rect x="286" y="47" width="10" height="10" fill="#161b22" rx="2" ry="2" class="day-square"><title>2025-02-24: 0 solves</title></rect><rect x="286" y="59" width="10" height="10" fill="#161b22" rx="2" ry="2" class="day-square"><title>2025-02-25: 0 solves</title></rect><rect x="286" y="71" width="10" height="10" fill="#161b22" rx="2" ry="2" class="day-square"><title>2025-02-26: 0 solves</title></rect><rect x="286" y="83" width="10" height="10" fill="#161b22" rx="2" ry="2" class="day-square"><title>2025-02-27: 0 solves</title></rect><rect x="286" y="95" width="10" height="10" fill="#161b22" rx="2" ry="2" class="day-square"><title>2025-02-28: 0 solves</title></rect><rect x="286" y="107" width="10" height="10" fill="#161b22" rx="2" ry="2" class="day-square"><title>2025-03-01: 0 solves</title></rect><rect x="298" y="35" width="10" height="10" fill="#161b22" rx="2" ry="2" class="day-square"><title>2025-03-02: 0 solves</title></rect><rect x="298" y="47" width="10" height="10" fill="#161b22" rx="2" ry="2" class="day-square"><title>2025-03-03: 0 solves</title></rect><rect x="298" y="59" width="10" height="10" fill="#161b22" rx="2" ry="2" class="day-square"><title>2025-03-04: 0 solves</title></rect><rect x="298" y="71" width="10" height="10" fill="#161b22" rx="2" ry="2" class="day-square"><title>2025-03-05: 0 solves</title></rect><rect x="298" y="83" width="10" height="10" fill="#161b22" rx="2" ry="2" class="day-square"><title>2025-03-06: 0 solves</title></rect><rect x="298" y="95" width="10" height="10" fill="#161b22" rx="2" ry="2" class="day-square"><title>2025-03-07: 0 solves</title></rect><rect x="298" y="107" width="10" height="10" fill="#161b22" rx="2" ry="2" class="day-square"><title>2025-03-08: 0 solves</title></rect><rect x="310" y="35" width="10" height="10" fill="#161b22" rx="2" ry="2" class="day-square"><title>2025-03-09: 0 solves</title></rect><rect x="310" y="47" width="10" height="10" fill="#161b22" rx="2" ry="2" class="day-square"><title>2025-03-10: 0 solves</title></rect><rect x="310" y="59" width="10" height="10" fill="#161b22" rx="2" ry="2" class="day-square"><title>2025-03-11: 0 solves</title></rect><rect x="310" y="71" width="10" height="10" fill="#161b22" rx="2" ry="2" class="day-square"><title>2025-03-12: 0 solves</title></rect><rect x="310" y="83" width="10" height="10" fill="#161b22" rx="2" ry="2" class="day-square"><title>2025-03-13: 0 solves</title></rect><rect x="310" y="95" width="10" height="10" fill="#161b22" rx="2" ry="2" class="day-square"><title>2025-03-14: 0 solves</title></rect><rect x="310" y="107" width="10" height="10" fill="#161b22" rx="2" ry="2" class="day-square"><title>2025-03-15: 0 solves</title></rect><rect x="322" y="35" width="10" height="10" fill="#161b22" rx="2" ry="2" class="day-square"><title>2025-03-16: 0 solves</title></rect><rect x="322" y="47" width="10" height="10" fill="#161b22" rx="2" ry="2" class="day-square"><title>2025-03-17: 0 solves</title></rect><rect x="322" y="59" width="10" height="10" fill="#161b22" rx="2" ry="2" class="day-square"><title>2025-03-18: 0 solves</title></rect><rect x="322" y="71" width="10" height="10" fill="#161b22" rx="2" ry="2" class="day-square"><title>2025-03-19: 0 solves</title></rect><rect x="322" y="83" width="10" height="10" fill="#161b22" rx="2" ry="2" class="day-square"><title>2025-03-20: 0 solves</title></rect><rect x="322" y="95" width="10" height="10" fill="#161b22" rx="2" ry="2" class="day-square"><title>2025-03-21: 0 solves</title></rect><rect x="322" y="107" width="10" height="10" fill="#161b22" rx="2" ry="2" class="day-square"><title>2025-03-22: 0 solves</title></rect><rect x="334" y="35" width="10" height="10" fill="#161b22" rx="2" ry="2" class="day-square"><title>2025-03-23: 0 solves</title></rect><rect x="334" y="47" width="10" height="10" fill="#161b22" rx="2" ry="2" class="day-square"><title>2025-03-24: 0 solves</title></rect><rect x="334" y="59" width="10" height="10" fill="#161b22" rx="2" ry="2" class="day-square"><title>2025-03-25: 0 solves</title></rect><rect x="334" y="71" width="10" height="10" fill="#161b22" rx="2" ry="2" class="day-square"><title>2025-03-26: 0 solves</title></rect><rect x="334" y="83" width="10" height="10" fill="#161b22" rx="2" ry="2" class="day-square"><title>2025-03-27: 0 solves</title></rect><rect x="334" y="95" width="10" height="10" fill="#161b22" rx="2" ry="2" class="day-square"><title>2025-03-28: 0 solves</title></rect><rect x="334" y="107" width="10" height="10" fill="#161b22" rx="2" ry="2" class="day-square"><title>2025-03-29: 0 solves</title></rect><rect x="346" y="35" width="10" height="10" fill="#161b22" rx="2" ry="2" class="day-square"><title>2025-03-30: 0 solves</title></rect><rect x="346" y="47" width="10" height="10" fill="#161b22" rx="2" ry="2" class="day-square"><title>2025-03-31: 0 solves</title></rect><rect x="346" y="59" width="10" height="10" fill="#161b22" rx="2" ry="2" class="day-square"><title>2025-04-01: 0 solves</title></rect><rect x="346" y="71" width="10" height="10" fill="#161b22" rx="2" ry="2" class="day-square"><title>2025-04-02: 0 solves</title></rect><rect x="346" y="83" width="10" height="10" fill="#161b22" rx="2" ry="2" class="day-square"><title>2025-04-03: 0 solves</title></rect><rect x="346" y="95" width="10" height="10" fill="#161b22" rx="2" ry="2" class="day-square"><title>2025-04-04: 0 solves</title></rect><rect x="346" y="107" width="10" height="10" fill="#161b22" rx="2" ry="2" class="day-square"><title>2025-04-05: 0 solves</title></rect><rect x="358" y="35" width="10" height="10" fill="#161b22" rx="2" ry="2" class="day-square"><title>2025-04-06: 0 solves</title></rect><rect x="358" y="47" width="10" height="10" fill="#161b22" rx="2" ry="2" class="day-square"><title>2025-04-07: 0 solves</title></rect><rect x="358" y="59" width="10" height="10" fill="#161b22" rx="2" ry="2" class="day-square"><title>2025-04-08: 0 solves</title></rect><rect x="358" y="71" width="10" height="10" fill="#161b22" rx="2" ry="2" class="day-square"><title>2025-04-09: 0 solves</title></rect><rect x="358" y="83" width="10" height="10" fill="#161b22" rx="2" ry="2" class="day-square"><title>2025-04-10: 0 solves</title></rect><rect x="358" y="95" width="10" height="10" fill="#161b22" rx="2" ry="2" class="day-square"><title>2025-04-11: 0 solves</title></rect><rect x="358" y="107" width="10" height="10" fill="#161b22" rx="2" ry="2" class="day-square"><title>2025-04-12: 0 solves</title></rect><rect x="370" y="35" width="10" height="10" fill="#161b22" rx="2" ry="2" class="day-square"><title>2025-04-13: 0 solves</title></rect><rect x="370" y="47" width="10" height="10" fill="#161b22" rx="2" ry="2" class="day-square"><title>2025-04-14: 0 solves</title></rect><rect x="370" y="59" width="10" height="10" fill="#161b22" rx="2" ry="2" class="day-square"><title>2025-04-15: 0 solves</title></rect><rect x="370" y="71" width="10" height="10" fill="#161b22" rx="2" ry="2" class="day-square"><title>2025-04-16: 0 solves</title></rect><rect x="370" y="83" width="10" height="10" fill="#161b22" rx="2" ry="2" class="day-square"><title>2025-04-17: 0 solves</title></rect><rect x="370" y="95" width="10" height="10" fill="#161b22" rx="2" ry="2" class="day-square"><title>2025-04-18: 0 solves</title></rect><rect x="370" y="107" width="10" height="10" fill="#161b22" rx="2" ry="2" class="day-square"><title>2025-04-19: 0 solves</title></rect><rect x="382" y="35" width="10" height="10" fill="#161b22" rx="2" ry="2" class="day-square"><title>2025-04-20: 0 solves</title></rect><rect x="382" y="47" width="10" height="10" fill="#161b22" rx="2" ry="2" class="day-square"><title>2025-04-21: 0 solves</title></rect><rect x="382" y="59" width="10" height="10" fill="#161b22" rx="2" ry="2" class="day-square"><title>2025-04-22: 0 solves</title></rect><rect x="382" y="71" width="10" height="10" fill="#161b22" rx="2" ry="2" class="day-square"><title>2025-04-23: 0 solves</title></rect><rect x="382" y="83" width="10" height="10" fill="#161b22" rx="2" ry="2" class="day-square"><title>2025-04-24: 0 solves</title></rect><rect x="382" y="95" width="10" height="10" fill="#161b22" rx="2" ry="2" class="day-square"><title>2025-04-25: 0 solves</title></rect><rect x="382" y="107" width="10" height="10" fill="#161b22" rx="2" ry="2" class="day-square"><title>2025-04-26: 0 solves</title></rect><rect x="394" y="35" width="10" height="10" fill="#161b22" rx="2" ry="2" class="day-square"><title>2025-04-27: 0 solves</title></rect><rect x="394" y="47" width="10" height="10" fill="#161b22" rx="2" ry="2" class="day-square"><title>2025-04-28: 0 solves</title></rect><rect x="394" y="59" width="10" height="10" fill="#161b22" rx="2" ry="2" class="day-square"><title>2025-04-29: 0 solves</title></rect><rect x="394" y="71" width="10" height="10" fill="#161b22" rx="2" ry="2" class="day-square"><title>2025-04-30: 0 solves</title></rect><rect x="394" y="83" width="10" height="10" fill="#161b22" rx="2" ry="2" class="day-square"><title>2025-05-01: 0 solves</title></rect><rect x="394" y="95" width="10" height="10" fill="#161b22" rx="2" ry="2" class="day-square"><title>2025-05-02: 0 solves</title></rect><rect x="394" y="107" width="10" height="10" fill="#161b22" rx="2" ry="2" class="day-square"><title>2025-05-03: 0 solves</title></rect><rect x="406" y="35" width="10" height="10" fill="#161b22" rx="2" ry="2" class="day-square"><title>2025-05-04: 0 solves</title></rect><rect x="406" y="47" width="10" height="10" fill="#161b22" rx="2" ry="2" class="day-square"><title>2025-05-05: 0 solves</title></rect><rect x="406" y="59" width="10" height="10" fill="#161b22" rx="2" ry="2" class="day-square"><title>2025-05-06: 0 solves</title></rect><rect x="406" y="71" width="10" height="10" fill="#161b22" rx="2" ry="2" class="day-square"><title>2025-05-07: 0 solves</title></rect><rect x="406" y="83" width="10" height="10" fill="#161b22" rx="2" ry="2" class="day-square"><title>2025-05-08: 0 solves</title></rect><rect x="406" y="95" width="10" height="10" fill="#161b22" rx="2" ry="2" class="day-square"><title>2025-05-09: 0 solves</title></rect><rect x="406" y="107" width="10" height="10" fill="#161b22" rx="2" ry="2" class="day-square"><title>2025-05-10: 0 solves</title></rect><rect x="418" y="35" width="10" height="10" fill="#161b22" rx="2" ry="2" class="day-square"><title>2025-05-11: 0 solves</title></rect><rect x="418" y="47" width="10" height="10" fill="#161b22" rx="2" ry="2" class="day-square"><title>2025-05-12: 0 solves</title></rect><rect x="418" y="59" width="10" height="10" fill="#161b22" rx="2" ry="2" class="day-square"><title>2025-05-13: 0 solves</title></rect><rect x="418" y="71" width="10" height="10" fill="#161b22" rx="2" ry="2" class="day-square"><title>2025-05-14: 0 solves</title></rect><rect x="418" y="83" width="10" height="10" fill="#161b22" rx="2" ry="2" class="day-square"><title>2025-05-15: 0 solves</title></rect><rect x="418" y="95" width="10" height="10" fill="#161b22" rx="2" ry="2" class="day-square"><title>2025-05-16: 0 solves</title></rect><rect x="418" y="107" width="10" height="10" fill="#161b22" rx="2" ry="2" class="day-square"><title>2025-05-17: 0 solves</title></rect><rect x="430" y="35" width="10" height="10" fill="#161b22" rx="2" ry="2" class="day-square"><title>2025-05-18: 0 solves</title></rect><rect x="430" y="47" width="10" height="10" fill="#161b22" rx="2" ry="2" class="day-square"><title>2025-05-19: 0 solves</title></rect><rect x="430" y="59" width="10" height="10" fill="#161b22" rx="2" ry="2" class="day-square"><title>2025-05-20: 0 solves</title></rect><rect x="430" y="71" width="10" height="10" fill="#161b22" rx="2" ry="2" class="day-square"><title>2025-05-21: 0 solves</title></rect><rect x="430" y="83" width="10" height="10" fill="#161b22" rx="2" ry="2" class="day-square"><title>2025-05-22: 0 solves</title></rect><rect x="430" y="95" width="10" height="10" fill="#161b22" rx="2" ry="2" class="day-square"><title>2025-05-23: 0 solves</title></rect><rect x="430" y="107" width="10" height="10" fill="#161b22" rx="2" ry="2" class="day-square"><title>2025-05-24: 0 solves</title></rect><rect x="442" y="35" width="10" height="10" fill="#161b22" rx="2" ry="2" class="day-square"><title>2025-05-25: 0 solves</title></rect><rect x="442" y="47" width="10" height="10" fill="#161b22" rx="2" ry="2" class="day-square"><title>2025-05-26: 0 solves</title></rect><rect x="442" y="59" width="10" height="10" fill="#161b22" rx="2" ry="2" class="day-square"><title>2025-05-27: 0 solves</title></rect><rect x="442" y="71" width="10" height="10" fill="#161b22" rx="2" ry="2" class="day-square"><title>2025-05-28: 0 solves</title></rect><rect x="442" y="83" width="10" height="10" fill="#161b22" rx="2" ry="2" class="day-square"><title>2025-05-29: 0 solves</title></rect><rect x="442" y="95" width="10" height="10" fill="#161b22" rx="2" ry="2" class="day-square"><title>2025-05-30: 0 solves</title></rect><rect x="442" y="107" width="10" height="10" fill="#161b22" rx="2" ry="2" class="day-square"><title>2025-05-31: 0 solves</title></rect><rect x="454" y="35" width="10" height="10" fill="#161b22" rx="2" ry="2" class="day-square"><title>2025-06-01: 0 solves</title></rect><rect x="454" y="47" width="10" height="10" fill="#161b22" rx="2" ry="2" class="day-square"><title>2025-06-02: 0 solves</title></rect><rect x="454" y="59" width="10" height="10" fill="#161b22" rx="2" ry="2" class="day-square"><title>2025-06-03: 0 solves</title></rect><rect x="454" y="71" width="10" height="10" fill="#161b22" rx="2" ry="2" class="day-square"><title>2025-06-04: 0 solves</title></rect><rect x="454" y="83" width="10" height="10" fill="#161b22" rx="2" ry="2" class="day-square"><title>2025-06-05: 0 solves</title></rect><rect x="454" y="95" width="10" height="10" fill="#161b22" rx="2" ry="2" class="day-square"><title>2025-06-06: 0 solves</title></rect><rect x="454" y="107" width="10" height="10" fill="#161b22" rx="2" ry="2" class="day-square"><title>2025-06-07: 0 solves</title></rect><rect x="466" y="35" width="10" height="10" fill="#161b22" rx="2" ry="2" class="day-square"><title>2025-06-08: 0 solves</title></rect><rect x="466" y="47" width="10" height="10" fill="#161b22" rx="2" ry="2" class="day-square"><title>2025-06-09: 0 solves</title></rect><rect x="466" y="59" width="10" height="10" fill="#161b22" rx="2" ry="2" class="day-square"><title>2025-06-10: 0 solves</title></rect><rect x="466" y="71" width="10" height="10" fill="#161b22" rx="2" ry="2" class="day-square"><title>2025-06-11: 0 solves</title></rect><rect x="466" y="83" width="10" height="10" fill="#161b22" rx="2" ry="2" class="day-square"><title>2025-06-12: 0 solves</title></rect><rect x="466" y="95" width="10" height="10" fill="#161b22" rx="2" ry="2" class="day-square"><title>2025-06-13: 0 solves</title></rect><rect x="466" y="107" width="10" height="10" fill="#161b22" rx="2" ry="2" class="day-square"><title>2025-06-14: 0 solves</title></rect><rect x="478" y="35" width="10" height="10" fill="#161b22" rx="2" ry="2" class="day-square"><title>2025-06-15: 0 solves</title></rect><rect x="478" y="47" width="10" height="10" fill="#161b22" rx="2" ry="2" class="day-square"><title>2025-06-16: 0 solves</title></rect><rect x="478" y="59" width="10" height="10" fill="#161b22" rx="2" ry="2" class="day-square"><title>2025-06-17: 0 solves</title></rect><rect x="478" y="71" width="10" height="10" fill="#161b22" rx="2" ry="2" class="day-square"><title>2025-06-18: 0 solves</title></rect><rect x="478" y="83" width="10" height="10" fill="#161b22" rx="2" ry="2" class="day-square"><title>2025-06-19: 0 solves</title></rect><rect x="478" y="95" width="10" height="10" fill="#161b22" rx="2" ry="2" class="day-square"><title>2025-06-20: 0 solves</title></rect><rect x="478" y="107" width="10" height="10" fill="#161b22" rx="2" ry="2" class="day-square"><title>2025-06-21: 0 solves</title></rect><rect x="490" y="35" width="10" height="10" fill="#161b22" rx="2" ry="2" class="day-square"><title>2025-06-22: 0 solves</title></rect><rect x="490" y="47" width="10" height="10" fill="#161b22" rx="2" ry="2" class="day-square"><title>2025-06-23: 0 solves</title></rect><rect x="490" y="59" width="10" height="10" fill="#161b22" rx="2" ry="2" class="day-square"><title>2025-06-24: 0 solves</title></rect><rect x="490" y="71" width="10" height="10" fill="#161b22" rx="2" ry="2" class="day-square"><title>2025-06-25: 0 solves</title></rect><rect x="490" y="83" width="10" height="10" fill="#161b22" rx="2" ry="2" class="day-square"><title>2025-06-26: 0 solves</title></rect><rect x="490" y="95" width="10" height="10" fill="#161b22" rx="2" ry="2" class="day-square"><title>2025-06-27: 0 solves</title></rect><rect x="490" y="107" width="10" height="10" fill="#161b22" rx="2" ry="2" class="day-square"><title>2025-06-28: 0 solves</title></rect><rect x="502" y="35" width="10" height="10" fill="#161b22" rx="2" ry="2" class="day-square"><title>2025-06-29: 0 solves</title></rect><rect x="502" y="47" width="10" height="10" fill="#161b22" rx="2" ry="2" class="day-square"><title>2025-06-30: 0 solves</title></rect><rect x="502" y="59" width="10" height="10" fill="#161b22" rx="2" ry="2" class="day-square"><title>2025-07-01: 0 solves</title></rect><rect x="502" y="71" width="10" height="10" fill="#161b22" rx="2" ry="2" class="day-square"><title>2025-07-02: 0 solves</title></rect><rect x="502" y="83" width="10" height="10" fill="#161b22" rx="2" ry="2" class="day-square"><title>2025-07-03: 0 solves</title></rect><rect x="502" y="95" width="10" height="10" fill="#161b22" rx="2" ry="2" class="day-square"><title>2025-07-04: 0 solves</title></rect><rect x="502" y="107" width="10" height="10" fill="#161b22" rx="2" ry="2" class="day-square"><title>2025-07-05: 0 solves</title></rect><rect x="514" y="35" width="10" height="10" fill="#161b22" rx="2" ry="2" class="day-square"><title>2025-07-06: 0 solves</title></rect><rect x="514" y="47" width="10" height="10" fill="#161b22" rx="2" ry="2" class="day-square"><title>2025-07-07: 0 solves</title></rect><rect x="514" y="59" width="10" height="10" fill="#161b22" rx="2" ry="2" class="day-square"><title>2025-07-08: 0 solves</title></rect><rect x="514" y="71" width="10" height="10" fill="#161b22" rx="2" ry="2" class="day-square"><title>2025-07-09: 0 solves</title></rect><rect x="514" y="83" width="10" height="10" fill="#161b22" rx="2" ry="2" class="day-square"><title>2025-07-10: 0 solves</title></rect><rect x="514" y="95" width="10" height="10" fill="#161b22" rx="2" ry="2" class="day-square"><title>2025-07-11: 0 solves</title></rect><rect x="514" y="107" width="10" height="10" fill="#161b22" rx="2" ry="2" class="day-square"><title>2025-07-12: 0 solves</title></rect><rect x="526" y="35" width="10" height="10" fill="#161b22" rx="2" ry="2" class="day-square"><title>2025-07-13: 0 solves</title></rect><rect x="526" y="47" width="10" height="10" fill="#161b22" rx="2" ry="2" class="day-square"><title>2025-07-14: 0 solves</title></rect><rect x="526" y="59" width="10" height="10" fill="#161b22" rx="2" ry="2" class="day-square"><title>2025-07-15: 0 solves</title></rect><rect x="526" y="71" width="10" height="10" fill="#161b22" rx="2" ry="2" class="day-square"><title>2025-07-16: 0 solves</title></rect><rect x="526" y="83" width="10" height="10" fill="#161b22" rx="2" ry="2" class="day-square"><title>2025-07-17: 0 solves</title></rect><rect x="526" y="95" width="10" height="10" fill="#161b22" rx="2" ry="2" class="day-square"><title>2025-07-18: 0 solves</title></rect><rect x="526" y="107" width="10" height="10" fill="#161b22" rx="2" ry="2" class="day-square"><title>2025-07-19: 0 solves</title></rect><rect x="538" y="35" width="10" height="10" fill="#161b22" rx="2" ry="2" class="day-square"><title>2025-07-20: 0 solves</title></rect><rect x="538" y="47" width="10" height="10" fill="#161b22" rx="2" ry="2" class="day-square"><title>2025-07-21: 0 solves</title></rect><rect x="538" y="59" width="10" height="10" fill="#161b22" rx="2" ry="2" class="day-square"><title>2025-07-22: 0 solves</title></rect><rect x="538" y="71" width="10" height="10" fill="#161b22" rx="2" ry="2" class="day-square"><title>2025-07-23: 0 solves</title></rect><rect x="538" y="83" width="10" height="10" fill="#161b22" rx="2" ry="2" class="day-square"><title>2025-07-24: 0 solves</title></rect><rect x="538" y="95" width="10" height="10" fill="#161b22" rx="2" ry="2" class="day-square"><title>2025-07-25: 0 solves</title></rect><rect x="538" y="107" width="10" height="10" fill="#161b22" rx="2" ry="2" class="day-square"><title>2025-07-26: 0 solves</title></rect><rect x="550" y="35" width="10" height="10" fill="#161b22" rx="2" ry="2" class="day-square"><title>2025-07-27: 0 solves</title></rect><rect x="550" y="47" width="10" height="10" fill="#161b22" rx="2" ry="2" class="day-square"><title>2025-07-28: 0 solves</title></rect><rect x="550" y="59" width="10" height="10" fill="#161b22" rx="2" ry="2" class="day-square"><title>2025-07-29: 0 solves</title></rect><rect x="550" y="71" width="10" height="10" fill="#161b22" rx="2" ry="2" class="day-square"><title>2025-07-30: 0 solves</title></rect><rect x="550" y="83" width="10" height="10" fill="#161b22" rx="2" ry="2" class="day-square"><title>2025-07-31: 0 solves</title></rect><rect x="550" y="95" width="10" height="10" fill="#161b22" rx="2" ry="2" class="day-square"><title>2025-08-01: 0 solves</title></rect><rect x="550" y="107" width="10" height="10" fill="#161b22" rx="2" ry="2" class="day-square"><title>2025-08-02: 0 solves</title></rect><rect x="562" y="35" width="10" height="10" fill="#161b22" rx="2" ry="2" class="day-square"><title>2025-08-03: 0 solves</title></rect><rect x="562" y="47" width="10" height="10" fill="#161b22" rx="2" ry="2" class="day-square"><title>2025-08-04: 0 solves</title></rect><rect x="562" y="59" width="10" height="10" fill="#161b22" rx="2" ry="2" class="day-square"><title>2025-08-05: 0 solves</title></rect><rect x="562" y="71" width="10" height="10" fill="#161b22" rx="2" ry="2" class="day-square"><title>2025-08-06: 0 solves</title></rect><rect x="562" y="83" width="10" height="10" fill="#161b22" rx="2" ry="2" class="day-square"><title>2025-08-07: 0 solves</title></rect><rect x="562" y="95" width="10" height="10" fill="#161b22" rx="2" ry="2" class="day-square"><title>2025-08-08: 0 solves</title></rect><rect x="562" y="107" width="10" height="10" fill="#161b22" rx="2" ry="2" class="day-square"><title>2025-08-09: 0 solves</title></rect><rect x="574" y="35" width="10" height="10" fill="#161b22" rx="2" ry="2" class="day-square"><title>2025-08-10: 0 solves</title></rect><rect x="574" y="47" width="10" height="10" fill="#161b22" rx="2" ry="2" class="day-square"><title>2025-08-11: 0 solves</title></rect><rect x="574" y="59" width="10" height="10" fill="#161b22" rx="2" ry="2" class="day-square"><title>2025-08-12: 0 solves</title></rect><rect x="574" y="71" width="10" height="10" fill="#161b22" rx="2" ry="2" class="day-square"><title>2025-08-13: 0 solves</title></rect><rect x="574" y="83" width="10" height="10" fill="#161b22" rx="2" ry="2" class="day-square"><title>2025-08-14: 0 solves</title></rect><rect x="574" y="95" width="10" height="10" fill="#161b22" rx="2" ry="2" class="day-square"><title>2025-08-15: 0 solves</title></rect><rect x="574" y="107" width="10" height="10" fill="#161b22" rx="2" ry="2" class="day-square"><title>2025-08-16: 0 solves</title></rect><rect x="586" y="35" width="10" height="10" fill="#161b22" rx="2" ry="2" class="day-square"><title>2025-08-17: 0 solves</title></rect><rect x="586" y="47" width="10" height="10" fill="#161b22" rx="2" ry="2" class="day-square"><title>2025-08-18: 0 solves</title></rect><rect x="586" y="59" width="10" height="10" fill="#161b22" rx="2" ry="2" class="day-square"><title>2025-08-19: 0 solves</title></rect><rect x="586" y="71" width="10" height="10" fill="#161b22" rx="2" ry="2" class="day-square"><title>2025-08-20: 0 solves</title></rect><rect x="586" y="83" width="10" height="10" fill="#161b22" rx="2" ry="2" class="day-square"><title>2025-08-21: 0 solves</title></rect><rect x="586" y="95" width="10" height="10" fill="#161b22" rx="2" ry="2" class="day-square"><title>2025-08-22: 0 solves</title></rect><rect x="586" y="107" width="10" height="10" fill="#161b22" rx="2" ry="2" class="day-square"><title>2025-08-23: 0 solves</title></rect><rect x="598" y="35" width="10" height="10" fill="#161b22" rx="2" ry="2" class="day-square"><title>2025-08-24: 0 solves</title></rect><rect x="598" y="47" width="10" height="10" fill="#161b22" rx="2" ry="2" class="day-square"><title>2025-08-25: 0 solves</title></rect><rect x="598" y="59" width="10" height="10" fill="#161b22" rx="2" ry="2" class="day-square"><title>2025-08-26: 0 solves</title></rect><rect x="598" y="71" width="10" height="10" fill="#161b22" rx="2" ry="2" class="day-square"><title>2025-08-27: 0 solves</title></rect><rect x="598" y="83" width="10" height="10" fill="#161b22" rx="2" ry="2" class="day-square"><title>2025-08-28: 0 solves</title></rect><rect x="598" y="95" width="10" height="10" fill="#161b22" rx="2" ry="2" class="day-square"><title>2025-08-29: 0 solves</title></rect><rect x="598" y="107" width="10" height="10" fill="#161b22" rx="2" ry="2" class="day-square"><title>2025-08-30: 0 solves</title></rect><rect x="610" y="35" width="10" height="10" fill="#39d353" rx="2" ry="2" class="day-square"><title>2025-08-31: 16 solves</title></rect><rect x="610" y="47" width="10" height="10" fill="#26a641" rx="2" ry="2" class="day-square"><title>2025-09-01: 15 solves</title></rect><rect x="610" y="59" width="10" height="10" fill="#0e4429" rx="2" ry="2" class="day-square"><title>2025-09-02: 2 solves</title></rect><rect x="610" y="71" width="10" height="10" fill="#161b22" rx="2" ry="2" class="day-square"><title>2025-09-03: 0 solves</title></rect><rect x="610" y="83" width="10" height="10" fill="#161b22" rx="2" ry="2" class="day-square"><title>2025-09-04: 0 solves</title></rect><rect x="610" y="95" width="10" height="10" fill="#161b22" rx="2" ry="2" class="day-square"><title>2025-09-05: 0 solves</title></rect><rect x="610" y="107" width="10" height="10" fill="#161b22" rx="2" ry="2" class="day-square"><title>2025-09-06: 0 solves</title></rect><rect x="622" y="35" width="10" height="10" fill="#161b22" rx="2" ry="2" class="day-square"><title>2025-09-07: 0 solves</title></rect><rect x="622" y="47" width="10" height="10" fill="#0e4429" rx="2" ry="2" class="day-square"><title>2025-09-08: 1 solves</title></rect><rect x="622" y="59" width="10" height="10" fill="#161b22" rx="2" ry="2" class="day-square"><title>2025-09-09: 0 solves</title></rect><rect x="622" y="71" width="10" height="10" fill="#161b22" rx="2" ry="2" class="day-square"><title>2025-09-10: 0 solves</title></rect><rect x="622" y="83" width="10" height="10" fill="#161b22" rx="2" ry="2" class="day-square"><title>2025-09-11: 0 solves</title></rect><rect x="622" y="95" width="10" height="10" fill="#161b22" rx="2" ry="2" class="day-square"><title>2025-09-12: 0 solves</title></rect><rect x="622" y="107" width="10" height="10" fill="#161b22" rx="2" ry="2" class="day-square"><title>2025-09-13: 0 solves</title></rect><rect x="634" y="35" width="10" height="10" fill="#161b22" rx="2" ry="2" class="day-square"><title>2025-09-14: 0 solves</title></rect><rect x="634" y="47" width="10" height="10" fill="#161b22" rx="2" ry="2" class="day-square"><title>2025-09-15: 0 solves</title></rect><rect x="634" y="59" width="10" height="10" fill="#161b22" rx="2" ry="2" class="day-square"><title>2025-09-16: 0 solves</title></rect></svg>